<svg xmlns="http://www.w3.org/2000/svg" viewBox="0 0 303.61 262.45"><defs><style>.cls-1{fill:#fff;}</style></defs><title>Meuf_1</title><g id="Calque_2" data-name="Calque 2"><g id="Calque_1-2" data-name="Calque 1"><path class="cls-1" d="M192.79,4.05h0a39.09,39.09,0,0,1,52.36,17.74l.68,1.36,1.36-.67a39.09,39.09,0,0,1,52.37,17.73h0a39.1,39.1,0,0,1-17.73,52.37l-1.37.67h0l-70.1,34.64L175.73,57.78h0l-.68-1.36A39.1,39.1,0,0,1,192.79,4.05Z"/><path class="cls-1" d="M110.83,4.05h0A39.1,39.1,0,0,0,58.46,21.79l-.68,1.36-1.36-.67A39.09,39.09,0,0,0,4.05,40.21h0A39.1,39.1,0,0,0,21.79,92.58l1.36.67h0l70.1,34.64,34.64-70.11h0l.67-1.36A39.11,39.11,0,0,0,110.83,4.05Z"/><path d="M213.39,198.62a30,30,0,0,0-22-28.88A12,12,0,0,0,185,192.88a6,6,0,0,1,.76,11.2,12,12,0,0,0-9.13,8.55,11,11,0,0,0-.32,1.68,1,1,0,0,0,0,.16c0,.3-.06.59-.08.88v1.05c0,.3,0,.59.08.88a.78.78,0,0,0,0,.16,11.17,11.17,0,0,0,.32,1.69,12,12,0,0,0,9.13,8.54,6,6,0,0,1-.76,11.21,12,12,0,0,0,3.19,23.57,11.81,11.81,0,0,0,3.2-.44,29.89,29.89,0,0,0,16.45-46.13A30,30,0,0,0,213.39,198.62Z"/></g></g></svg>