<svg xmlns="http://www.w3.org/2000/svg" viewBox="0 0 378.85 321.8"><title>Colere</title><g id="Calque_2" data-name="Calque 2"><g id="Calque_1-2" data-name="Calque 1"><path d="M131.23,203.77a33.41,33.41,0,0,1-16.77-4.52L16.71,142.61a33.5,33.5,0,1,1,33.59-58l97.75,56.64a33.5,33.5,0,0,1-16.82,62.49Z"/><path d="M247.45,203.94a33.51,33.51,0,0,1-16.74-62.54L328.63,85a33.5,33.5,0,0,1,33.42,58.07l-97.92,56.36A33.33,33.33,0,0,1,247.45,203.94Z"/><path d="M235.53,321.8a20,20,0,0,1-19.28-14.7,28.17,28.17,0,0,0-27.08-20.63h0A28.19,28.19,0,0,0,162,307a20,20,0,0,1-38.54-10.71,68.3,68.3,0,0,1,65.64-49.84h.1a68.27,68.27,0,0,1,65.59,50,20,20,0,0,1-19.29,25.3Z"/><path d="M116.91,65.43a5.5,5.5,0,0,1-1.45-10.81,15.24,15.24,0,0,0,0-29.36,5.5,5.5,0,1,1,2.94-10.59,26.23,26.23,0,0,1-.07,50.56A5.7,5.7,0,0,1,116.91,65.43Z"/><path d="M150.42,72.79A5.49,5.49,0,0,1,145.64,70a26.24,26.24,0,0,1,35.7-35.81,5.5,5.5,0,0,1-5.41,9.58A15.24,15.24,0,0,0,155.2,64.57a5.5,5.5,0,0,1-2.06,7.5A5.59,5.59,0,0,1,150.42,72.79Z"/><path d="M154.18,26.22A26.28,26.28,0,0,1,128.91,7,5.5,5.5,0,1,1,139.5,4.09a15.28,15.28,0,0,0,14.68,11.13h0A15.24,15.24,0,0,0,168.86,4,5.5,5.5,0,0,1,179.47,7a26.3,26.3,0,0,1-25.25,19.26Z"/></g></g></svg>