<?xml version="1.0" encoding="utf-8"?>
<!-- Generator: Adobe Illustrator 23.0.1, SVG Export Plug-In . SVG Version: 6.00 Build 0)  -->
<svg version="1.1" id="Calque_1" xmlns="http://www.w3.org/2000/svg" xmlns:xlink="http://www.w3.org/1999/xlink" x="0px" y="0px"
	 viewBox="0 0 307.3 177.8" style="enable-background:new 0 0 307.3 177.8;" xml:space="preserve">
<title>Jaune</title>
<g>
	<g id="Calque_1-2">
		<path d="M123.5,141.8H188c5.3,0,9.7,4.3,9.7,9.6c0,2-0.6,4-1.8,5.6c-15.6,22.2-46.3,27.5-68.5,11.8c-4.6-3.2-8.6-7.2-11.8-11.8
			c-3.1-4.4-2-10.4,2.3-13.5C119.6,142.4,121.5,141.8,123.5,141.8z"/>
		<path d="M20,75.3c-1.8,0-3.6-0.2-5.4-0.7C4,71.6-2.2,60.6,0.7,49.9c10-36.2,47.7-57.5,83.9-47.5c22.9,6.4,41.1,24.5,47.5,47.5
			c3,10.6-3.3,21.7-13.9,24.6c-10.6,3-21.7-3.3-24.6-13.9c-2.6-9.5-10.1-17-19.6-19.6C59,36.9,43.4,45.7,39.3,60.6
			C36.8,69.5,28.8,75.3,20,75.3z"/>
		<path d="M287.3,75.3c-8.8,0-16.8-5.8-19.3-14.7c-2.6-9.5-10.1-17-19.6-19.6c-15-4.1-30.5,4.6-34.6,19.6c-3,10.6-14,16.9-24.6,13.9
			c-10.6-3-16.9-14-13.9-24.6c10-36.2,47.7-57.5,83.9-47.5C282,8.8,300.2,27,306.6,49.9c3,10.6-3.3,21.7-13.9,24.6
			C290.9,75,289.1,75.3,287.3,75.3z"/>
	</g>
</g>
</svg>
