<?xml version="1.0" encoding="utf-8"?>
<!-- Generator: Adobe Illustrator 23.0.1, SVG Export Plug-In . SVG Version: 6.00 Build 0)  -->
<svg version="1.1" id="Calque_1" xmlns="http://www.w3.org/2000/svg" xmlns:xlink="http://www.w3.org/1999/xlink" x="0px" y="0px"
	 viewBox="0 0 303.6 262.5" style="enable-background:new 0 0 303.6 262.5;" xml:space="preserve">
<style type="text/css">
	.st0{fill:#FFFFFF;}
</style>
<title>Meuf</title>
<g>
	<path class="st0" d="M182.8,23L182.8,23c19.4-9.6,42.8-1.6,52.4,17.7c0,0,0,0,0,0l0.7,1.4l1.4-0.7c19.4-9.6,42.8-1.6,52.4,17.7
		c0,0,0,0,0,0l0,0c9.6,19.4,1.6,42.8-17.7,52.4l-1.4,0.7l0,0l-70.1,34.6l-34.6-70.1l0,0l-0.7-1.4C155.5,56.1,163.4,32.6,182.8,23z"
		/>
	<path class="st0" d="M122.8,23.1L122.8,23.1c-19.4-9.6-42.8-1.6-52.4,17.7l-0.7,1.4l-1.4-0.7c-19.4-9.6-42.8-1.6-52.4,17.7
		c0,0,0,0,0,0l0,0c-9.6,19.4-1.6,42.8,17.7,52.4l1.4,0.7l0,0l70.1,34.6l34.6-70.1l0,0l0.7-1.4C150.1,56.1,142.2,32.6,122.8,23.1z"/>
	<path d="M194.8,185.3c0-13.5-9-25.3-22-28.9c-6.4-1.8-13,2-14.8,8.4c-1.8,6.4,2,13,8.4,14.8l0,0c3.2,1,5,4.3,4,7.5
		c-0.5,1.6-1.7,3-3.2,3.7c-4.4,0.9-7.9,4.2-9.1,8.6c-0.2,0.6-0.3,1.1-0.3,1.7c0,0.1,0,0.1,0,0.2c0,0.3-0.1,0.6-0.1,0.9v1.1
		c0,0.3,0,0.6,0.1,0.9c0,0.1,0,0.1,0,0.2c0.1,0.6,0.2,1.1,0.3,1.7c1.2,4.3,4.7,7.6,9.1,8.5c3,1.4,4.4,4.9,3,7.9
		c-0.7,1.6-2.1,2.8-3.7,3.3c-6.4,1.8-10.1,8.4-8.4,14.8c1.4,5.2,6.2,8.8,11.6,8.8c1.1,0,2.2-0.1,3.2-0.4
		c15.9-4.4,25.3-20.8,20.9-36.7c-0.9-3.4-2.4-6.5-4.5-9.4C192.8,197.5,194.8,191.4,194.8,185.3z"/>
</g>
</svg>
