<svg xmlns="http://www.w3.org/2000/svg" viewBox="0 0 225.01 189.41"><title>Orange_2</title><g id="Calque_2" data-name="Calque 2"><g id="Calque_1-2" data-name="Calque 1"><path d="M113,189.41l-26.75-10.7-19.33,7.73A20,20,0,0,1,52.08,149.3l34.18-13.67L113,146.33l26.75-10.7,34.17,13.67a20,20,0,1,1-14.85,37.13l-19.32-7.72Z"/><path d="M211.08,60,178.33,49.51l32.75-10.45A20,20,0,1,0,198.93,1L112.51,28.51,26.08,1A20,20,0,0,0,13.93,39.06L46.68,49.51,13.93,60A20,20,0,1,0,26.08,98.06L112.51,70.5l86.42,27.56A20,20,0,1,0,211.08,60Z"/></g></g></svg>