<svg xmlns="http://www.w3.org/2000/svg" viewBox="0 0 371.34 213"><title>Rouge</title><g id="Calque_2" data-name="Calque 2"><g id="Calque_1-2" data-name="Calque 1"><path d="M16.21,98.18h103.3c16.21,0,22.38-21.18,8.7-29.88L24.91,2.56A16.21,16.21,0,0,0,0,16.23V82A16.21,16.21,0,0,0,16.21,98.18Z"/><path d="M355.13,98.18H251.83c-16.21,0-22.38-21.18-8.7-29.88L346.43,2.56a16.21,16.21,0,0,1,24.91,13.67V82A16.21,16.21,0,0,1,355.13,98.18Z"/><path d="M150.45,213h71.44a17.78,17.78,0,0,0,17.78-17.78V161.17a17.78,17.78,0,0,0-25.43-16l-71.44,34a17.78,17.78,0,0,0-10.13,16.05h0A17.78,17.78,0,0,0,150.45,213Z"/></g></g></svg>