<svg xmlns="http://www.w3.org/2000/svg" viewBox="0 0 304.41 209"><title>Vert</title><g id="Calque_2" data-name="Calque 2"><g id="Calque_1-2" data-name="Calque 1"><path d="M20,111.13A20,20,0,0,1,6.66,76.23L86.06,5.1a20,20,0,0,1,26.69,29.8L33.34,106A19.9,19.9,0,0,1,20,111.13Z"/><path d="M284.4,111.13A19.94,19.94,0,0,1,271.06,106L191.66,34.9A20,20,0,0,1,218.34,5.1l79.41,71.13a20,20,0,0,1-13.35,34.9Z"/><path d="M152.91,209a29.53,29.53,0,0,1-29.5-29.5,10,10,0,0,1,20,0,9.5,9.5,0,0,0,19,0,10,10,0,0,1,20,0A29.54,29.54,0,0,1,152.91,209Z"/></g></g></svg>